<svg width="400" height="400" xmlns="http://www.w3.org/2000/svg">
<polygon points="364.54,105.00 364.54,295.00 200.00,390.00 35.46,295.00 35.46,105.00 200.00,10.00" fill="#1a1a1a" stroke="#ffd700" stroke-width="1" />
<polygon points="333.69,122.81 333.69,277.19 200.00,354.38 66.31,277.19 66.31,122.81 200.00,45.63" fill="#ffe066" stroke="#ffd700" stroke-width="1" />
<polygon points="302.84,140.63 302.84,259.38 200.00,318.75 97.16,259.38 97.16,140.63 200.00,81.25" fill="#ffb700" stroke="#ffd700" stroke-width="1" />
<polygon points="271.99,158.44 271.99,241.56 200.00,283.13 128.01,241.56 128.01,158.44 200.00,116.88" fill="#ff8c00" stroke="#ffd700" stroke-width="1" />
<polygon points="241.14,176.25 241.14,223.75 200.00,247.50 158.86,223.75 158.86,176.25 200.00,152.50" fill="#1a1a1a" stroke="#ffd700" stroke-width="1" />
</svg>
